M48
; DRILL file {KiCad 6.0.0-d3dd2cf0fa~116~ubuntu21.04.1} date lun. 07 mars 2022 16:32:47
; FORMAT={-:-/ absolute / metric / decimal}
; #@! TF.CreationDate,2022-03-07T16:32:47+01:00
; #@! TF.GenerationSoftware,Kicad,Pcbnew,6.0.0-d3dd2cf0fa~116~ubuntu21.04.1
; #@! TF.FileFunction,Plated,1,4,PTH
FMAT,2
METRIC
; #@! TA.AperFunction,Plated,PTH,ViaDrill
T1C0.200
; #@! TA.AperFunction,Plated,PTH,ComponentDrill
T2C1.000
; #@! TA.AperFunction,Plated,PTH,ComponentDrill
T3C3.200
%
G90
G05
T1
X9.18Y-43.7
X10.18Y-48.7
X10.18Y-50.7
X11.18Y-41.7
X12.18Y-48.7
X12.18Y-50.7
X12.18Y-52.7
X13.18Y-41.7
X14.18Y-48.7
X14.18Y-50.7
X14.18Y-52.7
X15.18Y-41.7
X20.18Y-37.7
X20.18Y-39.7
X20.18Y-41.7
X22.18Y-37.7
X22.18Y-39.7
X22.18Y-41.7
X24.18Y-37.7
X24.18Y-39.7
X24.18Y-41.7
X25.18Y-48.7
X25.18Y-50.7
X25.18Y-52.7
X27.18Y-48.7
X27.18Y-50.7
X27.18Y-52.7
X29.18Y-48.7
X29.18Y-50.7
X29.18Y-52.7
T2
X8.4Y-2.29
X8.4Y-4.83
X10.94Y-2.29
X10.94Y-4.83
X13.48Y-2.29
X13.48Y-4.83
X16.02Y-2.29
X16.02Y-4.83
X18.56Y-2.29
X18.56Y-4.83
X21.1Y-2.29
X21.1Y-4.83
X21.16Y-44.43
X21.16Y-46.97
X23.64Y-2.29
X23.64Y-4.83
X26.18Y-2.29
X26.18Y-4.83
X28.72Y-2.29
X28.72Y-4.83
X31.26Y-2.29
X31.26Y-4.83
X33.8Y-2.29
X33.8Y-4.83
X36.34Y-2.29
X36.34Y-4.83
X38.67Y-51.959
X38.88Y-2.29
X38.88Y-4.83
X40.467Y-50.163
X41.42Y-2.29
X41.42Y-4.83
X43.96Y-2.29
X43.96Y-4.83
X46.5Y-2.29
X46.5Y-4.83
X49.04Y-2.29
X49.04Y-4.83
X51.58Y-2.29
X51.58Y-4.83
X54.12Y-2.29
X54.12Y-4.83
X56.66Y-2.29
X56.66Y-4.83
X65.23Y-20.04
X65.23Y-22.58
X65.23Y-25.12
X65.23Y-27.66
X65.23Y-30.2
X65.23Y-32.74
X65.23Y-35.28
T3
X3.52Y-3.55
X3.52Y-52.56
X61.51Y-52.55
X61.52Y-3.57
T0
M30
