G04 #@! TF.GenerationSoftware,KiCad,Pcbnew,6.0.0-d3dd2cf0fa~116~ubuntu21.04.1*
G04 #@! TF.CreationDate,2022-03-07T16:35:49+01:00*
G04 #@! TF.ProjectId,PiRogue-RPi-hat,5069526f-6775-4652-9d52-50692d686174,rev?*
G04 #@! TF.SameCoordinates,PX4efbba0PY7d37aa0*
G04 #@! TF.FileFunction,Soldermask,Top*
G04 #@! TF.FilePolarity,Negative*
%FSLAX46Y46*%
G04 Gerber Fmt 4.6, Leading zero omitted, Abs format (unit mm)*
G04 Created by KiCad (PCBNEW 6.0.0-d3dd2cf0fa~116~ubuntu21.04.1) date 2022-03-07 16:35:49*
%MOMM*%
%LPD*%
G01*
G04 APERTURE LIST*
G04 Aperture macros list*
%AMRoundRect*
0 Rectangle with rounded corners*
0 $1 Rounding radius*
0 $2 $3 $4 $5 $6 $7 $8 $9 X,Y pos of 4 corners*
0 Add a 4 corners polygon primitive as box body*
4,1,4,$2,$3,$4,$5,$6,$7,$8,$9,$2,$3,0*
0 Add four circle primitives for the rounded corners*
1,1,$1+$1,$2,$3*
1,1,$1+$1,$4,$5*
1,1,$1+$1,$6,$7*
1,1,$1+$1,$8,$9*
0 Add four rect primitives between the rounded corners*
20,1,$1+$1,$2,$3,$4,$5,0*
20,1,$1+$1,$4,$5,$6,$7,0*
20,1,$1+$1,$6,$7,$8,$9,0*
20,1,$1+$1,$8,$9,$2,$3,0*%
%AMHorizOval*
0 Thick line with rounded ends*
0 $1 width*
0 $2 $3 position (X,Y) of the first rounded end (center of the circle)*
0 $4 $5 position (X,Y) of the second rounded end (center of the circle)*
0 Add line between two ends*
20,1,$1,$2,$3,$4,$5,0*
0 Add two circle primitives to create the rounded ends*
1,1,$1,$2,$3*
1,1,$1,$4,$5*%
G04 Aperture macros list end*
G04 #@! TA.AperFunction,Profile*
%ADD10C,0.100000*%
G04 #@! TD*
%ADD11C,6.600000*%
%ADD12RoundRect,0.100000X-0.850000X-0.850000X0.850000X-0.850000X0.850000X0.850000X-0.850000X0.850000X0*%
%ADD13O,1.900000X1.900000*%
%ADD14RoundRect,0.100000X-0.850000X0.850000X-0.850000X-0.850000X0.850000X-0.850000X0.850000X0.850000X0*%
%ADD15RoundRect,0.100000X0.850000X0.850000X-0.850000X0.850000X-0.850000X-0.850000X0.850000X-0.850000X0*%
%ADD16RoundRect,0.100000X1.202082X0.000000X0.000000X1.202082X-1.202082X0.000000X0.000000X-1.202082X0*%
%ADD17HorizOval,1.900000X0.000000X0.000000X0.000000X0.000000X0*%
G04 APERTURE END LIST*
D10*
X82006356Y-56057611D02*
G75*
G03*
X85006356Y-53057611I-1J3000001D01*
G01*
X85006356Y-53057611D02*
X85006356Y-3057611D01*
X85006356Y-3057611D02*
G75*
G03*
X82006356Y-57611I-3000001J-1D01*
G01*
X82006356Y-57611D02*
X3026356Y-57611D01*
X26356Y-53057611D02*
G75*
G03*
X3026356Y-56057611I3000001J1D01*
G01*
X3026356Y-56057611D02*
X82006356Y-56057611D01*
X26356Y-3057611D02*
X26356Y-53057611D01*
X3026356Y-57611D02*
G75*
G03*
X26356Y-3057611I1J-3000001D01*
G01*
D11*
X3520000Y-3550000D03*
X61520000Y-3570000D03*
X3520000Y-52560000D03*
X61510000Y-52550000D03*
D12*
X65230000Y-20040000D03*
D13*
X65230000Y-22580000D03*
X65230000Y-25120000D03*
X65230000Y-27660000D03*
X65230000Y-30200000D03*
X65230000Y-32740000D03*
X65230000Y-35280000D03*
D14*
X8400000Y-4830000D03*
D13*
X8400000Y-2290000D03*
X10940000Y-4830000D03*
X10940000Y-2290000D03*
X13480000Y-4830000D03*
X13480000Y-2290000D03*
X16020000Y-4830000D03*
X16020000Y-2290000D03*
X18560000Y-4830000D03*
X18560000Y-2290000D03*
X21100000Y-4830000D03*
X21100000Y-2290000D03*
X23640000Y-4830000D03*
X23640000Y-2290000D03*
X26180000Y-4830000D03*
X26180000Y-2290000D03*
X28720000Y-4830000D03*
X28720000Y-2290000D03*
X31260000Y-4830000D03*
X31260000Y-2290000D03*
X33800000Y-4830000D03*
X33800000Y-2290000D03*
X36340000Y-4830000D03*
X36340000Y-2290000D03*
X38880000Y-4830000D03*
X38880000Y-2290000D03*
X41420000Y-4830000D03*
X41420000Y-2290000D03*
X43960000Y-4830000D03*
X43960000Y-2290000D03*
X46500000Y-4830000D03*
X46500000Y-2290000D03*
X49040000Y-4830000D03*
X49040000Y-2290000D03*
X51580000Y-4830000D03*
X51580000Y-2290000D03*
X54120000Y-4830000D03*
X54120000Y-2290000D03*
X56660000Y-4830000D03*
X56660000Y-2290000D03*
D15*
X21160000Y-44430000D03*
D13*
X21160000Y-46970000D03*
D16*
X40466520Y-50162680D03*
D17*
X38670469Y-51958731D03*
M02*
