G04 #@! TF.GenerationSoftware,KiCad,Pcbnew,6.0.0-d3dd2cf0fa~116~ubuntu21.04.1*
G04 #@! TF.CreationDate,2022-03-07T16:35:49+01:00*
G04 #@! TF.ProjectId,PiRogue-RPi-hat,5069526f-6775-4652-9d52-50692d686174,rev?*
G04 #@! TF.SameCoordinates,PX4efbba0PY7d37aa0*
G04 #@! TF.FileFunction,Legend,Bot*
G04 #@! TF.FilePolarity,Positive*
%FSLAX46Y46*%
G04 Gerber Fmt 4.6, Leading zero omitted, Abs format (unit mm)*
G04 Created by KiCad (PCBNEW 6.0.0-d3dd2cf0fa~116~ubuntu21.04.1) date 2022-03-07 16:35:49*
%MOMM*%
%LPD*%
G01*
G04 APERTURE LIST*
%ADD10C,0.150000*%
G04 #@! TA.AperFunction,Profile*
%ADD11C,0.100000*%
G04 #@! TD*
%ADD12C,0.120000*%
G04 APERTURE END LIST*
D10*
X16380000Y-42900000D02*
X17980000Y-42900000D01*
D11*
X82006356Y-56057611D02*
G75*
G03*
X85006356Y-53057611I-1J3000001D01*
G01*
X85006356Y-53057611D02*
X85006356Y-3057611D01*
X85006356Y-3057611D02*
G75*
G03*
X82006356Y-57611I-3000001J-1D01*
G01*
X82006356Y-57611D02*
X3026356Y-57611D01*
X26356Y-53057611D02*
G75*
G03*
X3026356Y-56057611I3000001J1D01*
G01*
X3026356Y-56057611D02*
X82006356Y-56057611D01*
X26356Y-3057611D02*
X26356Y-53057611D01*
X3026356Y-57611D02*
G75*
G03*
X26356Y-3057611I1J-3000001D01*
G01*
D10*
X5082380Y-3226666D02*
X5796666Y-3226666D01*
X5939523Y-3179047D01*
X6034761Y-3083809D01*
X6082380Y-2940952D01*
X6082380Y-2845714D01*
X5082380Y-3607619D02*
X5082380Y-4226666D01*
X5463333Y-3893333D01*
X5463333Y-4036190D01*
X5510952Y-4131428D01*
X5558571Y-4179047D01*
X5653809Y-4226666D01*
X5891904Y-4226666D01*
X5987142Y-4179047D01*
X6034761Y-4131428D01*
X6082380Y-4036190D01*
X6082380Y-3750476D01*
X6034761Y-3655238D01*
X5987142Y-3607619D01*
X15927619Y-27428571D02*
X15784761Y-27476190D01*
X15737142Y-27523809D01*
X15689523Y-27619047D01*
X15689523Y-27761904D01*
X15737142Y-27857142D01*
X15784761Y-27904761D01*
X15880000Y-27952380D01*
X16260952Y-27952380D01*
X16260952Y-26952380D01*
X15927619Y-26952380D01*
X15832380Y-27000000D01*
X15784761Y-27047619D01*
X15737142Y-27142857D01*
X15737142Y-27238095D01*
X15784761Y-27333333D01*
X15832380Y-27380952D01*
X15927619Y-27428571D01*
X16260952Y-27428571D01*
X15403809Y-26952380D02*
X14832380Y-26952380D01*
X15118095Y-27952380D02*
X15118095Y-26952380D01*
X14737142Y-28047619D02*
X13975238Y-28047619D01*
X13165714Y-27952380D02*
X13499047Y-27476190D01*
X13737142Y-27952380D02*
X13737142Y-26952380D01*
X13356190Y-26952380D01*
X13260952Y-27000000D01*
X13213333Y-27047619D01*
X13165714Y-27142857D01*
X13165714Y-27285714D01*
X13213333Y-27380952D01*
X13260952Y-27428571D01*
X13356190Y-27476190D01*
X13737142Y-27476190D01*
X12880000Y-26952380D02*
X12308571Y-26952380D01*
X12594285Y-27952380D02*
X12594285Y-26952380D01*
X11403809Y-27857142D02*
X11451428Y-27904761D01*
X11594285Y-27952380D01*
X11689523Y-27952380D01*
X11832380Y-27904761D01*
X11927619Y-27809523D01*
X11975238Y-27714285D01*
X12022857Y-27523809D01*
X12022857Y-27380952D01*
X11975238Y-27190476D01*
X11927619Y-27095238D01*
X11832380Y-27000000D01*
X11689523Y-26952380D01*
X11594285Y-26952380D01*
X11451428Y-27000000D01*
X11403809Y-27047619D01*
X10451428Y-27952380D02*
X11022857Y-27952380D01*
X10737142Y-27952380D02*
X10737142Y-26952380D01*
X10832380Y-27095238D01*
X10927619Y-27190476D01*
X11022857Y-27238095D01*
X16260952Y-19431428D02*
X15499047Y-19431428D01*
X15880000Y-19812380D02*
X15880000Y-19050476D01*
X38137142Y-15971428D02*
X38184761Y-15923809D01*
X38232380Y-15780952D01*
X38232380Y-15685714D01*
X38184761Y-15542857D01*
X38089523Y-15447619D01*
X37994285Y-15400000D01*
X37803809Y-15352380D01*
X37660952Y-15352380D01*
X37470476Y-15400000D01*
X37375238Y-15447619D01*
X37280000Y-15542857D01*
X37232380Y-15685714D01*
X37232380Y-15780952D01*
X37280000Y-15923809D01*
X37327619Y-15971428D01*
X38327619Y-16161904D02*
X38327619Y-16923809D01*
X38232380Y-17733333D02*
X37756190Y-17400000D01*
X38232380Y-17161904D02*
X37232380Y-17161904D01*
X37232380Y-17542857D01*
X37280000Y-17638095D01*
X37327619Y-17685714D01*
X37422857Y-17733333D01*
X37565714Y-17733333D01*
X37660952Y-17685714D01*
X37708571Y-17638095D01*
X37756190Y-17542857D01*
X37756190Y-17161904D01*
X37232380Y-18019047D02*
X37232380Y-18590476D01*
X38232380Y-18304761D02*
X37232380Y-18304761D01*
X38137142Y-19495238D02*
X38184761Y-19447619D01*
X38232380Y-19304761D01*
X38232380Y-19209523D01*
X38184761Y-19066666D01*
X38089523Y-18971428D01*
X37994285Y-18923809D01*
X37803809Y-18876190D01*
X37660952Y-18876190D01*
X37470476Y-18923809D01*
X37375238Y-18971428D01*
X37280000Y-19066666D01*
X37232380Y-19209523D01*
X37232380Y-19304761D01*
X37280000Y-19447619D01*
X37327619Y-19495238D01*
X38232380Y-20447619D02*
X38232380Y-19876190D01*
X38232380Y-20161904D02*
X37232380Y-20161904D01*
X37375238Y-20066666D01*
X37470476Y-19971428D01*
X37518095Y-19876190D01*
X60737142Y-17447619D02*
X60784761Y-17400000D01*
X60832380Y-17257142D01*
X60832380Y-17161904D01*
X60784761Y-17019047D01*
X60689523Y-16923809D01*
X60594285Y-16876190D01*
X60403809Y-16828571D01*
X60260952Y-16828571D01*
X60070476Y-16876190D01*
X59975238Y-16923809D01*
X59880000Y-17019047D01*
X59832380Y-17161904D01*
X59832380Y-17257142D01*
X59880000Y-17400000D01*
X59927619Y-17447619D01*
X60927619Y-17638095D02*
X60927619Y-18400000D01*
X60784761Y-18590476D02*
X60832380Y-18733333D01*
X60832380Y-18971428D01*
X60784761Y-19066666D01*
X60737142Y-19114285D01*
X60641904Y-19161904D01*
X60546666Y-19161904D01*
X60451428Y-19114285D01*
X60403809Y-19066666D01*
X60356190Y-18971428D01*
X60308571Y-18780952D01*
X60260952Y-18685714D01*
X60213333Y-18638095D01*
X60118095Y-18590476D01*
X60022857Y-18590476D01*
X59927619Y-18638095D01*
X59880000Y-18685714D01*
X59832380Y-18780952D01*
X59832380Y-19019047D01*
X59880000Y-19161904D01*
X60737142Y-20161904D02*
X60784761Y-20114285D01*
X60832380Y-19971428D01*
X60832380Y-19876190D01*
X60784761Y-19733333D01*
X60689523Y-19638095D01*
X60594285Y-19590476D01*
X60403809Y-19542857D01*
X60260952Y-19542857D01*
X60070476Y-19590476D01*
X59975238Y-19638095D01*
X59880000Y-19733333D01*
X59832380Y-19876190D01*
X59832380Y-19971428D01*
X59880000Y-20114285D01*
X59927619Y-20161904D01*
X60832380Y-21161904D02*
X60356190Y-20828571D01*
X60832380Y-20590476D02*
X59832380Y-20590476D01*
X59832380Y-20971428D01*
X59880000Y-21066666D01*
X59927619Y-21114285D01*
X60022857Y-21161904D01*
X60165714Y-21161904D01*
X60260952Y-21114285D01*
X60308571Y-21066666D01*
X60356190Y-20971428D01*
X60356190Y-20590476D01*
X60308571Y-21590476D02*
X60308571Y-21923809D01*
X60832380Y-22066666D02*
X60832380Y-21590476D01*
X59832380Y-21590476D01*
X59832380Y-22066666D01*
X60308571Y-22495238D02*
X60308571Y-22828571D01*
X60832380Y-22971428D02*
X60832380Y-22495238D01*
X59832380Y-22495238D01*
X59832380Y-22971428D01*
X60832380Y-23400000D02*
X59832380Y-23400000D01*
X60832380Y-23971428D01*
X59832380Y-23971428D01*
X60832380Y-24971428D02*
X60832380Y-24400000D01*
X60832380Y-24685714D02*
X59832380Y-24685714D01*
X59975238Y-24590476D01*
X60070476Y-24495238D01*
X60118095Y-24400000D01*
X19432380Y-43200000D02*
X18432380Y-43200000D01*
X18432380Y-43438095D01*
X18480000Y-43580952D01*
X18575238Y-43676190D01*
X18670476Y-43723809D01*
X18860952Y-43771428D01*
X19003809Y-43771428D01*
X19194285Y-43723809D01*
X19289523Y-43676190D01*
X19384761Y-43580952D01*
X19432380Y-43438095D01*
X19432380Y-43200000D01*
X19527619Y-43961904D02*
X19527619Y-44723809D01*
X18908571Y-45295238D02*
X18908571Y-44961904D01*
X19432380Y-44961904D02*
X18432380Y-44961904D01*
X18432380Y-45438095D01*
X19146666Y-45771428D02*
X19146666Y-46247619D01*
X19432380Y-45676190D02*
X18432380Y-46009523D01*
X19432380Y-46342857D01*
X19432380Y-46676190D02*
X18432380Y-46676190D01*
X19432380Y-47247619D01*
X18432380Y-47247619D01*
X19432380Y-48247619D02*
X19432380Y-47676190D01*
X19432380Y-47961904D02*
X18432380Y-47961904D01*
X18575238Y-47866666D01*
X18670476Y-47771428D01*
X18718095Y-47676190D01*
X28551428Y-46152380D02*
X28551428Y-45152380D01*
X28218095Y-45866666D01*
X27884761Y-45152380D01*
X27884761Y-46152380D01*
X27646666Y-46247619D02*
X26884761Y-46247619D01*
X26313333Y-45628571D02*
X26646666Y-45628571D01*
X26646666Y-46152380D02*
X26646666Y-45152380D01*
X26170476Y-45152380D01*
X25837142Y-45866666D02*
X25360952Y-45866666D01*
X25932380Y-46152380D02*
X25599047Y-45152380D01*
X25265714Y-46152380D01*
X24932380Y-46152380D02*
X24932380Y-45152380D01*
X24360952Y-46152380D01*
X24360952Y-45152380D01*
X23360952Y-46152380D02*
X23932380Y-46152380D01*
X23646666Y-46152380D02*
X23646666Y-45152380D01*
X23741904Y-45295238D01*
X23837142Y-45390476D01*
X23932380Y-45438095D01*
X15927619Y-43642857D02*
X15880000Y-43547619D01*
X15784761Y-43452380D01*
X15641904Y-43309523D01*
X15594285Y-43214285D01*
X15594285Y-43119047D01*
X15832380Y-43166666D02*
X15784761Y-43071428D01*
X15689523Y-42976190D01*
X15499047Y-42928571D01*
X15165714Y-42928571D01*
X14975238Y-42976190D01*
X14880000Y-43071428D01*
X14832380Y-43166666D01*
X14832380Y-43357142D01*
X14880000Y-43452380D01*
X14975238Y-43547619D01*
X15165714Y-43595238D01*
X15499047Y-43595238D01*
X15689523Y-43547619D01*
X15784761Y-43452380D01*
X15832380Y-43357142D01*
X15832380Y-43166666D01*
X15927619Y-43785714D02*
X15927619Y-44547619D01*
X15308571Y-45119047D02*
X15308571Y-44785714D01*
X15832380Y-44785714D02*
X14832380Y-44785714D01*
X14832380Y-45261904D01*
X15546666Y-45595238D02*
X15546666Y-46071428D01*
X15832380Y-45500000D02*
X14832380Y-45833333D01*
X15832380Y-46166666D01*
X15832380Y-46500000D02*
X14832380Y-46500000D01*
X15832380Y-47071428D01*
X14832380Y-47071428D01*
X15832380Y-48071428D02*
X15832380Y-47500000D01*
X15832380Y-47785714D02*
X14832380Y-47785714D01*
X14975238Y-47690476D01*
X15070476Y-47595238D01*
X15118095Y-47500000D01*
X21346666Y-8552380D02*
X21680000Y-8076190D01*
X21918095Y-8552380D02*
X21918095Y-7552380D01*
X21537142Y-7552380D01*
X21441904Y-7600000D01*
X21394285Y-7647619D01*
X21346666Y-7742857D01*
X21346666Y-7885714D01*
X21394285Y-7980952D01*
X21441904Y-8028571D01*
X21537142Y-8076190D01*
X21918095Y-8076190D01*
X20394285Y-8552380D02*
X20965714Y-8552380D01*
X20680000Y-8552380D02*
X20680000Y-7552380D01*
X20775238Y-7695238D01*
X20870476Y-7790476D01*
X20965714Y-7838095D01*
X19146666Y-10952380D02*
X19480000Y-10476190D01*
X19718095Y-10952380D02*
X19718095Y-9952380D01*
X19337142Y-9952380D01*
X19241904Y-10000000D01*
X19194285Y-10047619D01*
X19146666Y-10142857D01*
X19146666Y-10285714D01*
X19194285Y-10380952D01*
X19241904Y-10428571D01*
X19337142Y-10476190D01*
X19718095Y-10476190D01*
X18765714Y-10047619D02*
X18718095Y-10000000D01*
X18622857Y-9952380D01*
X18384761Y-9952380D01*
X18289523Y-10000000D01*
X18241904Y-10047619D01*
X18194285Y-10142857D01*
X18194285Y-10238095D01*
X18241904Y-10380952D01*
X18813333Y-10952380D01*
X18194285Y-10952380D01*
X9708571Y-45352380D02*
X10041904Y-44876190D01*
X10280000Y-45352380D02*
X10280000Y-44352380D01*
X9899047Y-44352380D01*
X9803809Y-44400000D01*
X9756190Y-44447619D01*
X9708571Y-44542857D01*
X9708571Y-44685714D01*
X9756190Y-44780952D01*
X9803809Y-44828571D01*
X9899047Y-44876190D01*
X10280000Y-44876190D01*
X9518095Y-45447619D02*
X8756190Y-45447619D01*
X8184761Y-44828571D02*
X8518095Y-44828571D01*
X8518095Y-45352380D02*
X8518095Y-44352380D01*
X8041904Y-44352380D01*
X7708571Y-45066666D02*
X7232380Y-45066666D01*
X7803809Y-45352380D02*
X7470476Y-44352380D01*
X7137142Y-45352380D01*
X6803809Y-45352380D02*
X6803809Y-44352380D01*
X6232380Y-45352380D01*
X6232380Y-44352380D01*
X5232380Y-45352380D02*
X5803809Y-45352380D01*
X5518095Y-45352380D02*
X5518095Y-44352380D01*
X5613333Y-44495238D01*
X5708571Y-44590476D01*
X5803809Y-44638095D01*
X28761904Y-8352380D02*
X28761904Y-9161904D01*
X28714285Y-9257142D01*
X28666666Y-9304761D01*
X28571428Y-9352380D01*
X28380952Y-9352380D01*
X28285714Y-9304761D01*
X28238095Y-9257142D01*
X28190476Y-9161904D01*
X28190476Y-8352380D01*
X27190476Y-9352380D02*
X27761904Y-9352380D01*
X27476190Y-9352380D02*
X27476190Y-8352380D01*
X27571428Y-8495238D01*
X27666666Y-8590476D01*
X27761904Y-8638095D01*
X15127619Y-9752380D02*
X14556190Y-9752380D01*
X14841904Y-10752380D02*
X14841904Y-9752380D01*
X14222857Y-10752380D02*
X14222857Y-9752380D01*
X13841904Y-9752380D01*
X13746666Y-9800000D01*
X13699047Y-9847619D01*
X13651428Y-9942857D01*
X13651428Y-10085714D01*
X13699047Y-10180952D01*
X13746666Y-10228571D01*
X13841904Y-10276190D01*
X14222857Y-10276190D01*
X13460952Y-10847619D02*
X12699047Y-10847619D01*
X12556190Y-9752380D02*
X11937142Y-9752380D01*
X12270476Y-10133333D01*
X12127619Y-10133333D01*
X12032380Y-10180952D01*
X11984761Y-10228571D01*
X11937142Y-10323809D01*
X11937142Y-10561904D01*
X11984761Y-10657142D01*
X12032380Y-10704761D01*
X12127619Y-10752380D01*
X12413333Y-10752380D01*
X12508571Y-10704761D01*
X12556190Y-10657142D01*
X11651428Y-9752380D02*
X11318095Y-10752380D01*
X10984761Y-9752380D01*
X10746666Y-9752380D02*
X10127619Y-9752380D01*
X10460952Y-10133333D01*
X10318095Y-10133333D01*
X10222857Y-10180952D01*
X10175238Y-10228571D01*
X10127619Y-10323809D01*
X10127619Y-10561904D01*
X10175238Y-10657142D01*
X10222857Y-10704761D01*
X10318095Y-10752380D01*
X10603809Y-10752380D01*
X10699047Y-10704761D01*
X10746666Y-10657142D01*
X10327619Y-13552380D02*
X9756190Y-13552380D01*
X10041904Y-14552380D02*
X10041904Y-13552380D01*
X9422857Y-14552380D02*
X9422857Y-13552380D01*
X9041904Y-13552380D01*
X8946666Y-13600000D01*
X8899047Y-13647619D01*
X8851428Y-13742857D01*
X8851428Y-13885714D01*
X8899047Y-13980952D01*
X8946666Y-14028571D01*
X9041904Y-14076190D01*
X9422857Y-14076190D01*
X8660952Y-14647619D02*
X7899047Y-14647619D01*
X7184761Y-13552380D02*
X7660952Y-13552380D01*
X7708571Y-14028571D01*
X7660952Y-13980952D01*
X7565714Y-13933333D01*
X7327619Y-13933333D01*
X7232380Y-13980952D01*
X7184761Y-14028571D01*
X7137142Y-14123809D01*
X7137142Y-14361904D01*
X7184761Y-14457142D01*
X7232380Y-14504761D01*
X7327619Y-14552380D01*
X7565714Y-14552380D01*
X7660952Y-14504761D01*
X7708571Y-14457142D01*
X6851428Y-13552380D02*
X6518095Y-14552380D01*
X6184761Y-13552380D01*
X5327619Y-14552380D02*
X5899047Y-14552380D01*
X5613333Y-14552380D02*
X5613333Y-13552380D01*
X5708571Y-13695238D01*
X5803809Y-13790476D01*
X5899047Y-13838095D01*
X28556190Y-50752380D02*
X27984761Y-50752380D01*
X28270476Y-51752380D02*
X28270476Y-50752380D01*
X27651428Y-51752380D02*
X27651428Y-50752380D01*
X27270476Y-50752380D01*
X27175238Y-50800000D01*
X27127619Y-50847619D01*
X27080000Y-50942857D01*
X27080000Y-51085714D01*
X27127619Y-51180952D01*
X27175238Y-51228571D01*
X27270476Y-51276190D01*
X27651428Y-51276190D01*
X26889523Y-51847619D02*
X26127619Y-51847619D01*
X25318095Y-51657142D02*
X25365714Y-51704761D01*
X25508571Y-51752380D01*
X25603809Y-51752380D01*
X25746666Y-51704761D01*
X25841904Y-51609523D01*
X25889523Y-51514285D01*
X25937142Y-51323809D01*
X25937142Y-51180952D01*
X25889523Y-50990476D01*
X25841904Y-50895238D01*
X25746666Y-50800000D01*
X25603809Y-50752380D01*
X25508571Y-50752380D01*
X25365714Y-50800000D01*
X25318095Y-50847619D01*
X24889523Y-51752380D02*
X24889523Y-50752380D01*
X24556190Y-51466666D01*
X24222857Y-50752380D01*
X24222857Y-51752380D01*
X23746666Y-51752380D02*
X23746666Y-50752380D01*
X23508571Y-50752380D01*
X23365714Y-50800000D01*
X23270476Y-50895238D01*
X23222857Y-50990476D01*
X23175238Y-51180952D01*
X23175238Y-51323809D01*
X23222857Y-51514285D01*
X23270476Y-51609523D01*
X23365714Y-51704761D01*
X23508571Y-51752380D01*
X23746666Y-51752380D01*
X22984761Y-51847619D02*
X22222857Y-51847619D01*
X21651428Y-51228571D02*
X21984761Y-51228571D01*
X21984761Y-51752380D02*
X21984761Y-50752380D01*
X21508571Y-50752380D01*
X21175238Y-51466666D02*
X20699047Y-51466666D01*
X21270476Y-51752380D02*
X20937142Y-50752380D01*
X20603809Y-51752380D01*
X20270476Y-51752380D02*
X20270476Y-50752380D01*
X19699047Y-51752380D01*
X19699047Y-50752380D01*
X18699047Y-51752380D02*
X19270476Y-51752380D01*
X18984761Y-51752380D02*
X18984761Y-50752380D01*
X19080000Y-50895238D01*
X19175238Y-50990476D01*
X19270476Y-51038095D01*
X7560952Y-17552380D02*
X6989523Y-17552380D01*
X7275238Y-18552380D02*
X7275238Y-17552380D01*
X6656190Y-18552380D02*
X6656190Y-17552380D01*
X6275238Y-17552380D01*
X6180000Y-17600000D01*
X6132380Y-17647619D01*
X6084761Y-17742857D01*
X6084761Y-17885714D01*
X6132380Y-17980952D01*
X6180000Y-18028571D01*
X6275238Y-18076190D01*
X6656190Y-18076190D01*
X5894285Y-18647619D02*
X5132380Y-18647619D01*
X5037142Y-17552380D02*
X4703809Y-18552380D01*
X4370476Y-17552380D01*
X3703809Y-18028571D02*
X3560952Y-18076190D01*
X3513333Y-18123809D01*
X3465714Y-18219047D01*
X3465714Y-18361904D01*
X3513333Y-18457142D01*
X3560952Y-18504761D01*
X3656190Y-18552380D01*
X4037142Y-18552380D01*
X4037142Y-17552380D01*
X3703809Y-17552380D01*
X3608571Y-17600000D01*
X3560952Y-17647619D01*
X3513333Y-17742857D01*
X3513333Y-17838095D01*
X3560952Y-17933333D01*
X3608571Y-17980952D01*
X3703809Y-18028571D01*
X4037142Y-18028571D01*
X3084761Y-18266666D02*
X2608571Y-18266666D01*
X3180000Y-18552380D02*
X2846666Y-17552380D01*
X2513333Y-18552380D01*
X2322857Y-17552380D02*
X1751428Y-17552380D01*
X2037142Y-18552380D02*
X2037142Y-17552380D01*
X894285Y-18552380D02*
X1465714Y-18552380D01*
X1180000Y-18552380D02*
X1180000Y-17552380D01*
X1275238Y-17695238D01*
X1370476Y-17790476D01*
X1465714Y-17838095D01*
X22546666Y-32752380D02*
X21975238Y-32752380D01*
X22260952Y-33752380D02*
X22260952Y-32752380D01*
X21641904Y-33752380D02*
X21641904Y-32752380D01*
X21260952Y-32752380D01*
X21165714Y-32800000D01*
X21118095Y-32847619D01*
X21070476Y-32942857D01*
X21070476Y-33085714D01*
X21118095Y-33180952D01*
X21165714Y-33228571D01*
X21260952Y-33276190D01*
X21641904Y-33276190D01*
X20880000Y-33847619D02*
X20118095Y-33847619D01*
X19356190Y-32800000D02*
X19451428Y-32752380D01*
X19594285Y-32752380D01*
X19737142Y-32800000D01*
X19832380Y-32895238D01*
X19880000Y-32990476D01*
X19927619Y-33180952D01*
X19927619Y-33323809D01*
X19880000Y-33514285D01*
X19832380Y-33609523D01*
X19737142Y-33704761D01*
X19594285Y-33752380D01*
X19499047Y-33752380D01*
X19356190Y-33704761D01*
X19308571Y-33657142D01*
X19308571Y-33323809D01*
X19499047Y-33323809D01*
X18880000Y-33752380D02*
X18880000Y-32752380D01*
X18308571Y-33752380D01*
X18308571Y-32752380D01*
X17832380Y-33752380D02*
X17832380Y-32752380D01*
X17594285Y-32752380D01*
X17451428Y-32800000D01*
X17356190Y-32895238D01*
X17308571Y-32990476D01*
X17260952Y-33180952D01*
X17260952Y-33323809D01*
X17308571Y-33514285D01*
X17356190Y-33609523D01*
X17451428Y-33704761D01*
X17594285Y-33752380D01*
X17832380Y-33752380D01*
X16308571Y-33752380D02*
X16880000Y-33752380D01*
X16594285Y-33752380D02*
X16594285Y-32752380D01*
X16689523Y-32895238D01*
X16784761Y-32990476D01*
X16880000Y-33038095D01*
X15508571Y-39487142D02*
X15556190Y-39534761D01*
X15699047Y-39582380D01*
X15794285Y-39582380D01*
X15937142Y-39534761D01*
X16032380Y-39439523D01*
X16080000Y-39344285D01*
X16127619Y-39153809D01*
X16127619Y-39010952D01*
X16080000Y-38820476D01*
X16032380Y-38725238D01*
X15937142Y-38630000D01*
X15794285Y-38582380D01*
X15699047Y-38582380D01*
X15556190Y-38630000D01*
X15508571Y-38677619D01*
X15318095Y-39677619D02*
X14556190Y-39677619D01*
X13984761Y-39058571D02*
X14318095Y-39058571D01*
X14318095Y-39582380D02*
X14318095Y-38582380D01*
X13841904Y-38582380D01*
X13508571Y-39296666D02*
X13032380Y-39296666D01*
X13603809Y-39582380D02*
X13270476Y-38582380D01*
X12937142Y-39582380D01*
X12603809Y-39582380D02*
X12603809Y-38582380D01*
X12032380Y-39582380D01*
X12032380Y-38582380D01*
X11032380Y-39582380D02*
X11603809Y-39582380D01*
X11318095Y-39582380D02*
X11318095Y-38582380D01*
X11413333Y-38725238D01*
X11508571Y-38820476D01*
X11603809Y-38868095D01*
X49546666Y-53152380D02*
X49546666Y-52152380D01*
X49213333Y-52866666D01*
X48880000Y-52152380D01*
X48880000Y-53152380D01*
X48641904Y-53247619D02*
X47880000Y-53247619D01*
X47308571Y-52628571D02*
X47641904Y-52628571D01*
X47641904Y-53152380D02*
X47641904Y-52152380D01*
X47165714Y-52152380D01*
X46832380Y-52866666D02*
X46356190Y-52866666D01*
X46927619Y-53152380D02*
X46594285Y-52152380D01*
X46260952Y-53152380D01*
X45927619Y-53152380D02*
X45927619Y-52152380D01*
X45356190Y-53152380D01*
X45356190Y-52152380D01*
X45118095Y-53247619D02*
X44356190Y-53247619D01*
X44165714Y-52866666D02*
X43689523Y-52866666D01*
X44260952Y-53152380D02*
X43927619Y-52152380D01*
X43594285Y-53152380D01*
X42784761Y-53152380D02*
X43260952Y-53152380D01*
X43260952Y-52152380D01*
X42594285Y-52152380D02*
X42022857Y-52152380D01*
X42308571Y-53152380D02*
X42308571Y-52152380D01*
X41165714Y-53152380D02*
X41737142Y-53152380D01*
X41451428Y-53152380D02*
X41451428Y-52152380D01*
X41546666Y-52295238D01*
X41641904Y-52390476D01*
X41737142Y-52438095D01*
X10665714Y-39952380D02*
X10094285Y-39952380D01*
X10380000Y-40952380D02*
X10380000Y-39952380D01*
X9760952Y-40952380D02*
X9760952Y-39952380D01*
X9380000Y-39952380D01*
X9284761Y-40000000D01*
X9237142Y-40047619D01*
X9189523Y-40142857D01*
X9189523Y-40285714D01*
X9237142Y-40380952D01*
X9284761Y-40428571D01*
X9380000Y-40476190D01*
X9760952Y-40476190D01*
X8999047Y-41047619D02*
X8237142Y-41047619D01*
X7999047Y-40952380D02*
X7999047Y-39952380D01*
X7618095Y-39952380D01*
X7522857Y-40000000D01*
X7475238Y-40047619D01*
X7427619Y-40142857D01*
X7427619Y-40285714D01*
X7475238Y-40380952D01*
X7522857Y-40428571D01*
X7618095Y-40476190D01*
X7999047Y-40476190D01*
X7094285Y-39952380D02*
X6856190Y-40952380D01*
X6665714Y-40238095D01*
X6475238Y-40952380D01*
X6237142Y-39952380D01*
X5856190Y-40952380D02*
X5856190Y-39952380D01*
X5522857Y-40666666D01*
X5189523Y-39952380D01*
X5189523Y-40952380D01*
X4189523Y-40952380D02*
X4760952Y-40952380D01*
X4475238Y-40952380D02*
X4475238Y-39952380D01*
X4570476Y-40095238D01*
X4665714Y-40190476D01*
X4760952Y-40238095D01*
D12*
X9670000Y-6160000D02*
X57990000Y-6160000D01*
X7070000Y-4830000D02*
X7070000Y-6160000D01*
X7070000Y-960000D02*
X57990000Y-960000D01*
X9670000Y-3560000D02*
X9670000Y-6160000D01*
X7070000Y-6160000D02*
X8400000Y-6160000D01*
X7070000Y-3560000D02*
X9670000Y-3560000D01*
X7070000Y-960000D02*
X7070000Y-3560000D01*
X57990000Y-960000D02*
X57990000Y-6160000D01*
X12380000Y-24480000D02*
X12880000Y-24480000D01*
X14300000Y-29480000D02*
X14300000Y-24480000D01*
X13800000Y-29480000D02*
X14300000Y-29480000D01*
X14300000Y-24480000D02*
X13800000Y-24480000D01*
X12880000Y-29480000D02*
X12380000Y-29480000D01*
X6990000Y-20630000D02*
X6990000Y-21900000D01*
X6990000Y-20630000D02*
X6990000Y-21900000D01*
X12380000Y-29480000D02*
X12380000Y-24480000D01*
X19690000Y-20630000D02*
X6990000Y-20630000D01*
X19690000Y-21900000D02*
X19690000Y-20630000D01*
X17150000Y-21900000D02*
X19690000Y-21900000D01*
X19690000Y-20630000D02*
X6990000Y-20630000D01*
X6990000Y-21900000D02*
X9530000Y-21900000D01*
X19690000Y-21900000D02*
X19690000Y-20630000D01*
X9530000Y-21900000D02*
G75*
G03*
X17150000Y-21900000I3810000J-5080000D01*
G01*
X35290000Y-17738748D02*
X35290000Y-18261252D01*
X36710000Y-17738748D02*
X36710000Y-18261252D01*
X62710000Y-21261252D02*
X62710000Y-20738748D01*
X61290000Y-21261252D02*
X61290000Y-20738748D01*
X18160000Y-43310000D02*
X18160000Y-47210000D01*
X16160000Y-43310000D02*
X16160000Y-47210000D01*
X16160000Y-43310000D02*
X18160000Y-43310000D01*
X22490000Y-45700000D02*
X19830000Y-45700000D01*
X22490000Y-45700000D02*
X22490000Y-48300000D01*
X22490000Y-48300000D02*
X19830000Y-48300000D01*
X22490000Y-44430000D02*
X22490000Y-43100000D01*
X19830000Y-45700000D02*
X19830000Y-48300000D01*
X22490000Y-43100000D02*
X21160000Y-43100000D01*
X13920000Y-43850000D02*
X12460000Y-43850000D01*
X13920000Y-43850000D02*
X13920000Y-44780000D01*
X13920000Y-47010000D02*
X13920000Y-46080000D01*
X13920000Y-47010000D02*
X11760000Y-47010000D01*
X24261252Y-8710000D02*
X23738748Y-8710000D01*
X24261252Y-7290000D02*
X23738748Y-7290000D01*
X18738748Y-11290000D02*
X19261252Y-11290000D01*
X18738748Y-12710000D02*
X19261252Y-12710000D01*
X8421252Y-47140000D02*
X7898748Y-47140000D01*
X8421252Y-45720000D02*
X7898748Y-45720000D01*
X31860000Y-9740000D02*
X31860000Y-9995000D01*
X31860000Y-9995000D02*
X33675000Y-9995000D01*
X28000000Y-20260000D02*
X24140000Y-20260000D01*
X31860000Y-20260000D02*
X31860000Y-20005000D01*
X24140000Y-20260000D02*
X24140000Y-20005000D01*
X24140000Y-9740000D02*
X24140000Y-9995000D01*
X28000000Y-9740000D02*
X24140000Y-9740000D01*
X28000000Y-20260000D02*
X31860000Y-20260000D01*
X28000000Y-9740000D02*
X31860000Y-9740000D01*
X9600000Y-10220000D02*
G75*
G03*
X9600000Y-10220000I-1200000J0D01*
G01*
X4980000Y-14100000D02*
G75*
G03*
X4980000Y-14100000I-1200000J0D01*
G01*
X18360000Y-51240000D02*
G75*
G03*
X18360000Y-51240000I-1200000J0D01*
G01*
X10430000Y-18210000D02*
G75*
G03*
X10430000Y-18210000I-1200000J0D01*
G01*
X19820000Y-35230000D02*
G75*
G03*
X19820000Y-35230000I-1200000J0D01*
G01*
X16450000Y-39391252D02*
X16450000Y-38868748D01*
X17870000Y-39391252D02*
X17870000Y-38868748D01*
X40508946Y-52001158D02*
X38628042Y-50120254D01*
X41406972Y-51103132D02*
X42347424Y-50162680D01*
X38628042Y-50120254D02*
X36789565Y-51958731D01*
X40508946Y-52001158D02*
X38670469Y-53839635D01*
X38670469Y-53839635D02*
X36789565Y-51958731D01*
X42347424Y-50162680D02*
X41406972Y-49222228D01*
X8380000Y-42500000D02*
G75*
G03*
X8380000Y-42500000I-1200000J0D01*
G01*
M02*
